<?xml version="1.0" encoding="UTF-8"?>
<svg xmlns="http://www.w3.org/2000/svg" xmlns:xlink="http://www.w3.org/1999/xlink" width="252.886" height="86.526" viewBox="0 0 252.886 86.526">
<defs>
<clipPath id="clip-0">
<path clip-rule="nonzero" d="M 0.632812 75 L 9 75 L 9 86 L 0.632812 86 Z M 0.632812 75 "/>
</clipPath>
<clipPath id="clip-1">
<path clip-rule="nonzero" d="M 155 74 L 164 74 L 164 86.054688 L 155 86.054688 Z M 155 74 "/>
</clipPath>
<clipPath id="clip-2">
<path clip-rule="nonzero" d="M 176 75 L 184 75 L 184 86.054688 L 176 86.054688 Z M 176 75 "/>
</clipPath>
<clipPath id="clip-3">
<path clip-rule="nonzero" d="M 241 75 L 252.140625 75 L 252.140625 86 L 241 86 Z M 241 75 "/>
</clipPath>
<clipPath id="clip-4">
<path clip-rule="nonzero" d="M 0.632812 0 L 252.140625 0 L 252.140625 62 L 0.632812 62 Z M 0.632812 0 "/>
</clipPath>
</defs>
<g clip-path="url(#clip-0)">
<path fill-rule="nonzero" fill="rgb(17.254639%, 17.254639%, 17.254639%)" fill-opacity="1" d="M 2.863281 82.089844 L 2.863281 85.90625 L 0.632812 85.90625 L 0.632812 75.070312 L 4.859375 75.070312 C 5.671875 75.070312 6.386719 75.222656 7 75.519531 C 7.621094 75.816406 8.097656 76.242188 8.429688 76.789062 C 8.761719 77.335938 8.929688 77.960938 8.929688 78.660156 C 8.929688 79.71875 8.5625 80.558594 7.835938 81.171875 C 7.109375 81.785156 6.105469 82.089844 4.820312 82.089844 Z M 2.863281 80.28125 L 4.859375 80.28125 C 5.449219 80.28125 5.898438 80.140625 6.207031 79.863281 C 6.519531 79.585938 6.675781 79.1875 6.675781 78.671875 C 6.675781 78.144531 6.519531 77.714844 6.207031 77.386719 C 5.894531 77.058594 5.460938 76.890625 4.910156 76.878906 L 2.863281 76.878906 Z M 2.863281 80.28125 "/>
</g>
<path fill-rule="nonzero" fill="rgb(17.254639%, 17.254639%, 17.254639%)" fill-opacity="1" d="M 20.140625 76.878906 L 16.820312 76.878906 L 16.820312 85.90625 L 14.589844 85.90625 L 14.589844 76.878906 L 11.316406 76.878906 L 11.316406 75.070312 L 20.140625 75.070312 Z M 20.140625 76.878906 "/>
<path fill-rule="nonzero" fill="rgb(17.254639%, 17.254639%, 17.254639%)" fill-opacity="1" d="M 20.984375 84.847656 C 20.984375 84.507812 21.101562 84.230469 21.328125 84.015625 C 21.5625 83.800781 21.851562 83.695312 22.199219 83.695312 C 22.550781 83.695312 22.839844 83.800781 23.070312 84.015625 C 23.300781 84.230469 23.417969 84.507812 23.417969 84.847656 C 23.417969 85.1875 23.304688 85.460938 23.078125 85.675781 C 22.847656 85.882812 22.554688 85.988281 22.199219 85.988281 C 21.847656 85.988281 21.554688 85.882812 21.328125 85.675781 C 21.101562 85.460938 20.984375 85.1875 20.984375 84.847656 Z M 20.984375 84.847656 "/>
<path fill-rule="nonzero" fill="rgb(17.254639%, 17.254639%, 17.254639%)" fill-opacity="1" d="M 35.199219 75.070312 L 37.984375 82.929688 L 40.75 75.070312 L 43.683594 75.070312 L 43.683594 85.90625 L 41.445312 85.90625 L 41.445312 82.945312 L 41.667969 77.832031 L 38.742188 85.90625 L 37.210938 85.90625 L 34.292969 77.839844 L 34.515625 82.945312 L 34.515625 85.90625 L 32.285156 85.90625 L 32.285156 75.070312 Z M 35.199219 75.070312 "/>
<path fill-rule="nonzero" fill="rgb(17.254639%, 17.254639%, 17.254639%)" fill-opacity="1" d="M 47.15625 85.90625 L 47.15625 75.070312 L 50.488281 75.070312 C 51.441406 75.070312 52.292969 75.289062 53.042969 75.71875 C 53.796875 76.144531 54.382812 76.757812 54.804688 77.550781 C 55.226562 78.339844 55.4375 79.238281 55.4375 80.242188 L 55.4375 80.742188 C 55.4375 81.75 55.230469 82.644531 54.8125 83.429688 C 54.402344 84.210938 53.816406 84.820312 53.0625 85.25 C 52.308594 85.683594 51.460938 85.902344 50.511719 85.90625 Z M 49.386719 76.878906 L 49.386719 84.113281 L 50.46875 84.113281 C 51.339844 84.113281 52.007812 83.828125 52.46875 83.257812 C 52.929688 82.6875 53.164062 81.871094 53.175781 80.808594 L 53.175781 80.234375 C 53.175781 79.132812 52.945312 78.300781 52.492188 77.734375 C 52.035156 77.164062 51.367188 76.878906 50.488281 76.878906 Z M 49.386719 76.878906 "/>
<path fill-rule="nonzero" fill="rgb(17.254639%, 17.254639%, 17.254639%)" fill-opacity="1" d="M 64.542969 83.671875 L 60.628906 83.671875 L 59.882812 85.90625 L 57.511719 85.90625 L 61.542969 75.070312 L 63.613281 75.070312 L 67.667969 85.90625 L 65.292969 85.90625 Z M 61.230469 81.867188 L 63.941406 81.867188 L 62.578125 77.808594 Z M 61.230469 81.867188 "/>
<path fill-rule="nonzero" fill="rgb(17.254639%, 17.254639%, 17.254639%)" fill-opacity="1" d="M 81.636719 83.671875 L 77.722656 83.671875 L 76.976562 85.90625 L 74.605469 85.90625 L 78.636719 75.070312 L 80.707031 75.070312 L 84.761719 85.90625 L 82.386719 85.90625 Z M 78.324219 81.867188 L 81.035156 81.867188 L 79.671875 77.808594 Z M 78.324219 81.867188 "/>
<path fill-rule="nonzero" fill="rgb(17.254639%, 17.254639%, 17.254639%)" fill-opacity="1" d="M 90.214844 75.070312 L 92.996094 82.929688 L 95.765625 75.070312 L 98.695312 75.070312 L 98.695312 85.90625 L 96.457031 85.90625 L 96.457031 82.945312 L 96.679688 77.832031 L 93.753906 85.90625 L 92.222656 85.90625 L 89.304688 77.839844 L 89.527344 82.945312 L 89.527344 85.90625 L 87.296875 85.90625 L 87.296875 75.070312 Z M 90.214844 75.070312 "/>
<path fill-rule="nonzero" fill="rgb(17.254639%, 17.254639%, 17.254639%)" fill-opacity="1" d="M 108.417969 83.671875 L 104.503906 83.671875 L 103.761719 85.90625 L 101.386719 85.90625 L 105.417969 75.070312 L 107.488281 75.070312 L 111.542969 85.90625 L 109.167969 85.90625 Z M 105.105469 81.867188 L 107.816406 81.867188 L 106.453125 77.808594 Z M 105.105469 81.867188 "/>
<path fill-rule="nonzero" fill="rgb(17.254639%, 17.254639%, 17.254639%)" fill-opacity="1" d="M 122.886719 85.90625 L 120.65625 85.90625 L 116.308594 78.777344 L 116.308594 85.90625 L 114.078125 85.90625 L 114.078125 75.070312 L 116.308594 75.070312 L 120.664062 82.214844 L 120.664062 75.070312 L 122.886719 75.070312 Z M 122.886719 85.90625 "/>
<path fill-rule="nonzero" fill="rgb(17.254639%, 17.254639%, 17.254639%)" fill-opacity="1" d="M 132.609375 83.671875 L 128.695312 83.671875 L 127.953125 85.90625 L 125.578125 85.90625 L 129.613281 75.070312 L 131.679688 75.070312 L 135.734375 85.90625 L 133.363281 85.90625 Z M 129.300781 81.867188 L 132.007812 81.867188 L 130.644531 77.808594 Z M 129.300781 81.867188 "/>
<path fill-rule="nonzero" fill="rgb(17.254639%, 17.254639%, 17.254639%)" fill-opacity="1" d="M 147.089844 85.90625 L 144.855469 85.90625 L 144.855469 81.261719 L 140.503906 81.261719 L 140.503906 85.90625 L 138.269531 85.90625 L 138.269531 75.070312 L 140.503906 75.070312 L 140.503906 79.460938 L 144.855469 79.460938 L 144.855469 75.070312 L 147.089844 75.070312 Z M 147.089844 85.90625 "/>
<g clip-path="url(#clip-1)">
<path fill-rule="nonzero" fill="rgb(17.254639%, 17.254639%, 17.254639%)" fill-opacity="1" d="M 161.496094 83.0625 C 161.496094 82.640625 161.347656 82.320312 161.050781 82.097656 C 160.75 81.867188 160.214844 81.628906 159.441406 81.382812 C 158.667969 81.128906 158.054688 80.878906 157.605469 80.636719 C 156.375 79.972656 155.757812 79.078125 155.757812 77.953125 C 155.757812 77.367188 155.921875 76.84375 156.25 76.390625 C 156.582031 75.929688 157.054688 75.566406 157.671875 75.308594 C 158.289062 75.050781 158.984375 74.921875 159.753906 74.921875 C 160.527344 74.921875 161.21875 75.066406 161.824219 75.347656 C 162.429688 75.625 162.898438 76.019531 163.230469 76.53125 C 163.566406 77.042969 163.734375 77.621094 163.734375 78.273438 L 161.503906 78.273438 C 161.503906 77.777344 161.347656 77.390625 161.035156 77.117188 C 160.722656 76.839844 160.28125 76.703125 159.714844 76.703125 C 159.171875 76.703125 158.746094 76.816406 158.445312 77.050781 C 158.140625 77.28125 157.992188 77.582031 157.992188 77.960938 C 157.992188 78.3125 158.167969 78.605469 158.519531 78.84375 C 158.875 79.082031 159.398438 79.304688 160.089844 79.515625 C 161.359375 79.894531 162.285156 80.371094 162.863281 80.933594 C 163.445312 81.5 163.734375 82.207031 163.734375 83.046875 C 163.734375 83.984375 163.378906 84.722656 162.671875 85.257812 C 161.960938 85.789062 161.007812 86.054688 159.804688 86.054688 C 158.972656 86.054688 158.214844 85.902344 157.53125 85.601562 C 156.84375 85.292969 156.320312 84.875 155.960938 84.34375 C 155.601562 83.8125 155.425781 83.199219 155.425781 82.496094 L 157.664062 82.496094 C 157.664062 83.695312 158.378906 84.292969 159.804688 84.292969 C 160.335938 84.292969 160.75 84.183594 161.050781 83.972656 C 161.347656 83.753906 161.496094 83.449219 161.496094 83.0625 Z M 161.496094 83.0625 "/>
</g>
<path fill-rule="nonzero" fill="rgb(17.254639%, 17.254639%, 17.254639%)" fill-opacity="1" d="M 173.289062 81.210938 L 169.003906 81.210938 L 169.003906 84.113281 L 174.035156 84.113281 L 174.035156 85.90625 L 166.769531 85.90625 L 166.769531 75.070312 L 174.019531 75.070312 L 174.019531 76.878906 L 169.003906 76.878906 L 169.003906 79.460938 L 173.289062 79.460938 Z M 173.289062 81.210938 "/>
<g clip-path="url(#clip-2)">
<path fill-rule="nonzero" fill="rgb(17.254639%, 17.254639%, 17.254639%)" fill-opacity="1" d="M 181.234375 75.070312 L 183.46875 75.070312 L 183.46875 82.574219 C 183.46875 83.261719 183.3125 83.871094 183.007812 84.402344 C 182.703125 84.929688 182.273438 85.335938 181.71875 85.621094 C 181.164062 85.910156 180.535156 86.054688 179.835938 86.054688 C 178.691406 86.054688 177.796875 85.765625 177.160156 85.183594 C 176.519531 84.597656 176.199219 83.773438 176.199219 82.707031 L 178.445312 82.707031 C 178.445312 83.238281 178.558594 83.628906 178.78125 83.882812 C 179.003906 84.136719 179.355469 84.261719 179.835938 84.261719 C 180.265625 84.261719 180.605469 84.113281 180.855469 83.824219 C 181.109375 83.53125 181.234375 83.113281 181.234375 82.574219 Z M 181.234375 75.070312 "/>
</g>
<path fill-rule="nonzero" fill="rgb(17.254639%, 17.254639%, 17.254639%)" fill-opacity="1" d="M 192.859375 83.671875 L 188.945312 83.671875 L 188.199219 85.90625 L 185.828125 85.90625 L 189.859375 75.070312 L 191.929688 75.070312 L 195.984375 85.90625 L 193.609375 85.90625 Z M 189.546875 81.867188 L 192.257812 81.867188 L 190.894531 77.808594 Z M 189.546875 81.867188 "/>
<path fill-rule="nonzero" fill="rgb(17.254639%, 17.254639%, 17.254639%)" fill-opacity="1" d="M 207.339844 85.90625 L 205.105469 85.90625 L 205.105469 81.261719 L 200.753906 81.261719 L 200.753906 85.90625 L 198.523438 85.90625 L 198.523438 75.070312 L 200.753906 75.070312 L 200.753906 79.460938 L 205.105469 79.460938 L 205.105469 75.070312 L 207.339844 75.070312 Z M 207.339844 85.90625 "/>
<path fill-rule="nonzero" fill="rgb(17.254639%, 17.254639%, 17.254639%)" fill-opacity="1" d="M 218.753906 76.878906 L 215.433594 76.878906 L 215.433594 85.90625 L 213.203125 85.90625 L 213.203125 76.878906 L 209.929688 76.878906 L 209.929688 75.070312 L 218.753906 75.070312 Z M 218.753906 76.878906 "/>
<path fill-rule="nonzero" fill="rgb(17.254639%, 17.254639%, 17.254639%)" fill-opacity="1" d="M 228.070312 81.210938 L 223.785156 81.210938 L 223.785156 84.113281 L 228.8125 84.113281 L 228.8125 85.90625 L 221.550781 85.90625 L 221.550781 75.070312 L 228.796875 75.070312 L 228.796875 76.878906 L 223.785156 76.878906 L 223.785156 79.460938 L 228.070312 79.460938 Z M 228.070312 81.210938 "/>
<path fill-rule="nonzero" fill="rgb(17.254639%, 17.254639%, 17.254639%)" fill-opacity="1" d="M 235.660156 81.941406 L 233.878906 81.941406 L 233.878906 85.90625 L 231.648438 85.90625 L 231.648438 75.070312 L 235.671875 75.070312 C 236.953125 75.070312 237.941406 75.355469 238.636719 75.929688 C 239.328125 76.5 239.675781 77.304688 239.675781 78.347656 C 239.675781 79.085938 239.515625 79.703125 239.191406 80.199219 C 238.875 80.691406 238.394531 81.082031 237.742188 81.375 L 240.085938 85.800781 L 240.085938 85.90625 L 237.691406 85.90625 Z M 233.878906 80.132812 L 235.679688 80.132812 C 236.242188 80.132812 236.675781 79.992188 236.984375 79.707031 C 237.289062 79.421875 237.445312 79.027344 237.445312 78.523438 C 237.445312 78.011719 237.296875 77.613281 237.007812 77.320312 C 236.71875 77.027344 236.273438 76.878906 235.671875 76.878906 L 233.878906 76.878906 Z M 233.878906 80.132812 "/>
<g clip-path="url(#clip-3)">
<path fill-rule="nonzero" fill="rgb(17.254639%, 17.254639%, 17.254639%)" fill-opacity="1" d="M 249.015625 83.671875 L 245.101562 83.671875 L 244.359375 85.90625 L 241.984375 85.90625 L 246.015625 75.070312 L 248.085938 75.070312 L 252.140625 85.90625 L 249.765625 85.90625 Z M 245.703125 81.867188 L 248.414062 81.867188 L 247.050781 77.808594 Z M 245.703125 81.867188 "/>
</g>
<g clip-path="url(#clip-4)">
<path fill-rule="evenodd" fill="rgb(94.117737%, 11.372375%, 15.293884%)" fill-opacity="1" d="M 119.328125 16.386719 L 126.539062 41.449219 L 108.273438 41.449219 L 97.1875 0.960938 L 149.746094 0.960938 C 154.941406 0.960938 159.722656 1.671875 164.109375 3.082031 C 168.476562 4.507812 172.21875 6.523438 175.355469 9.125 C 177.464844 10.796875 179.261719 12.703125 180.742188 14.851562 L 166.808594 34.515625 C 167.121094 33.351562 167.285156 32.117188 167.285156 30.84375 C 167.285156 28.761719 166.847656 26.855469 165.957031 25.074219 C 165.082031 23.304688 163.832031 21.800781 162.242188 20.550781 C 160.65625 19.25 158.777344 18.25 156.667969 17.539062 C 154.53125 16.769531 152.214844 16.386719 149.746094 16.386719 Z M 154.695312 60.261719 L 91.761719 60.261719 C 91.761719 60.261719 82.582031 25.730469 82.101562 23.304688 C 81.101562 25.363281 65.894531 54.585938 65.894531 54.585938 C 65.125 56.066406 64.316406 57.246094 63.496094 58.136719 C 62.726562 58.957031 61.933594 59.601562 61.097656 60.066406 C 60.277344 60.5625 59.386719 60.847656 58.453125 60.972656 C 57.492188 61.152344 56.464844 61.234375 55.34375 61.234375 C 54.21875 61.234375 53.191406 61.152344 52.246094 60.972656 C 51.289062 60.847656 50.410156 60.5625 49.574219 60.066406 C 48.753906 59.601562 47.929688 58.957031 47.109375 58.136719 C 46.328125 57.246094 45.558594 56.066406 44.804688 54.585938 C 44.804688 54.585938 28.953125 24.308594 28.488281 23.304688 C 28.023438 25.664062 18.921875 60.261719 18.921875 60.261719 L 0.917969 60.261719 L 16.265625 8.140625 C 17.085938 5.355469 18.445312 3.328125 20.320312 2.027344 C 22.226562 0.671875 24.324219 0 26.625 0 C 28.980469 0 30.96875 0.5625 32.570312 1.671875 C 34.214844 2.796875 35.585938 4.328125 36.640625 6.289062 C 36.640625 6.289062 55.164062 39.695312 55.683594 40.761719 C 56.179688 39.695312 74.664062 6.289062 74.664062 6.289062 C 75.71875 4.398438 77.058594 2.890625 78.648438 1.765625 C 80.308594 0.589844 82.347656 0 84.773438 0 C 87.074219 0 89.144531 0.671875 90.980469 2.027344 C 92.859375 3.328125 94.214844 5.355469 95.050781 8.140625 L 105.65625 45.039062 L 154.695312 45.011719 C 157.242188 45.011719 159.585938 44.722656 161.695312 44.050781 C 166.367188 42.515625 168.917969 38.515625 171.753906 34.515625 L 191.523438 6.632812 C 192.757812 4.917969 194.332031 3.398438 196.210938 2.027344 C 198.113281 0.671875 200.511719 0 203.402344 0 C 206.183594 0 208.488281 0.644531 210.324219 1.933594 C 212.199219 3.179688 213.804688 4.742188 215.089844 6.632812 L 252.140625 60.261719 L 174.234375 60.261719 C 181.632812 56.863281 187.332031 51.695312 191.964844 45.105469 L 219.710938 45.105469 L 203.046875 20.910156 C 203.046875 20.910156 188.097656 41.953125 184.085938 47.738281 C 183.015625 49.230469 181.644531 50.4375 180.21875 51.65625 C 177.097656 54.328125 173.328125 56.421875 168.957031 57.957031 C 164.601562 59.492188 159.832031 60.261719 154.695312 60.261719 "/>
</g>
</svg>
